<svg width="12" height="14" viewBox="0 0 12 14" fill="none" xmlns="http://www.w3.org/2000/svg">
    <path d="M11.3608 0.444637H7.90786C7.88313 0.195108 7.67253 0 7.41632 0H4.58354C4.32731 0 4.11676 0.195108 4.09204 0.444637H0.639114C0.366206 0.444637 0.14502 0.665824 0.14502 0.938801V1.87753C0.14502 2.15053 0.366206 2.37165 0.639114 2.37165H11.3608C11.6337 2.37165 11.8549 2.15051 11.8549 1.87753V0.938824C11.8549 0.665824 11.6337 0.444637 11.3608 0.444637Z" fill="#E46F6F" fill-opacity="0.5" />
    <path d="M1.18079 3.32081V13.5059C1.18079 13.7786 1.40197 14 1.67488 14H10.3248C10.5978 14 10.8188 13.7787 10.8188 13.5059V3.32081H1.18079ZM4.79821 10.9653C4.79821 11.2661 4.55431 11.5101 4.25353 11.5101C3.9526 11.5101 3.70886 11.2661 3.70886 10.9653V5.56507C3.70886 5.26427 3.9526 5.02039 4.25353 5.02039C4.55431 5.02039 4.79821 5.2643 4.79821 5.56507V10.9653ZM8.29098 10.9653C8.29098 11.2661 8.04708 11.5101 7.74621 11.5101C7.44535 11.5101 7.20154 11.2661 7.20154 10.9653V5.56507C7.20154 5.26427 7.44537 5.02039 7.74621 5.02039C8.04705 5.02039 8.29098 5.2643 8.29098 5.56507V10.9653Z" fill="#E46F6F" fill-opacity="0.5" />
</svg>
